<svg id="Ebene_1" data-name="Ebene 1" xmlns="http://www.w3.org/2000/svg" viewBox="0 0 626.5 335.39"><defs><style>.cls-1,.cls-2{fill:#008fc3;}.cls-2{fill-rule:evenodd;}.cls-3{fill:#0099ca;}.cls-4{font-size:32px;fill:#3c3c3b;font-family:ArialMT, Arial;letter-spacing:0.39em;}.cls-5{letter-spacing:0.41em;}.cls-6{letter-spacing:0.41em;}.cls-7{letter-spacing:0.4em;}.cls-8{letter-spacing:0.39em;}.cls-9{letter-spacing:0.39em;}.cls-10{letter-spacing:0.4em;}</style></defs><title>VCA Logo Master</title><polygon class="cls-1" points="50.92 239.61 37.42 239.61 25.55 265.58 12.9 239.61 0 239.61 22.79 284.16 27.61 284.16 50.92 239.61 50.92 239.61"/><polygon class="cls-1" points="129.55 239.61 116.05 239.61 104.18 265.58 91.54 239.61 78.63 239.61 101.43 284.16 106.25 284.16 129.55 239.61 129.55 239.61"/><path class="cls-2" d="M192.89,298.16,169.4,253.61h-4.82l-23.31,44.56h11.78l4.64-9.12h18.58l4.73,9.12Zm-21-17.8H162l4.82-10,5.08,10Z" transform="translate(-14 -14)"/><path class="cls-1" d="M268.12,292.4V281.91c-2.41,1.55-10.75,6.54-19.87,6.54-7.4,0-13.42-5.59-13.42-12.56s6-12.47,13.42-12.47c9.29,0,17.55,4.82,19.87,6.28V259.28A37,37,0,0,0,248.25,253c-14,0-24.86,10.41-24.86,22.88s10.84,23,24.86,23a34.32,34.32,0,0,0,19.87-6.45Z" transform="translate(-14 -14)"/><path class="cls-2" d="M331.43,276c0-12.47-11.18-22.79-25.29-22.88s-25.2,10.41-25.2,22.79,11.1,23,25.2,23,25.29-10.49,25.29-22.88Zm-11.53,0c0,6.88-6.19,12.47-13.76,12.47s-13.76-5.59-13.76-12.56,6.28-12.47,13.76-12.47S319.9,269,319.9,276Z" transform="translate(-14 -14)"/><path class="cls-1" d="M388.11,298.16V253.69h-11v22.45a29,29,0,0,0,.34,3.7l-29.16-26.15h-5v44.47h11.1V276.92a32.49,32.49,0,0,0-.26-4.13l29,25.37Z" transform="translate(-14 -14)"/><path class="cls-2" d="M473,298.16l-23.48-44.56h-4.82l-23.31,44.56H433.2l4.64-9.12h18.58l4.73,9.12Zm-21-17.8h-9.89l4.82-10,5.08,10Z" transform="translate(-14 -14)"/><path class="cls-1" d="M524,291.63l-.09-16.34H512.55v11.53c-2.41,1.55-6.36,2.15-9.46,2.15-8.08,0-15.22-5.85-15.14-13.08s6.62-13.07,14.45-13.07c8.17,0,17.55,4.56,20,5.85v-9.8a36.46,36.46,0,0,0-20.21-5.76c-14.11,0-25.29,10.41-25.29,22.79s11.53,22.88,26,22.88A32.86,32.86,0,0,0,524,291.63Z" transform="translate(-14 -14)"/><path class="cls-1" d="M582.6,276.14V253.69H571.42v22.45c0,7.57-4,12.3-11.27,12.3s-11.27-4.73-11.27-12.39V253.69h-11.1v22.36c0,13.94,8.43,22.71,22.36,22.71S582.6,290,582.6,276.14Z" transform="translate(-14 -14)"/><path class="cls-2" d="M640.5,298.16,617,253.61H612.2l-23.31,44.56h11.78l4.65-9.12h18.58l4.73,9.12Zm-21-17.8h-9.89l4.82-10,5.08,10Z" transform="translate(-14 -14)"/><path class="cls-2" d="M249.12,159.9c17.89,79.59,152,67,163.89-9,9-57.61-39.95-104.19-109.68-118.46a26.5,26.5,0,0,1,1.09,5.22c1.4,10.73-5.85,20.5-12.38,28.05C285.2,73.65,275.92,82.48,267,92.56c-17.37,19.61-24.32,38.58-17.86,67.33ZM285.85,14l2.62.29c82.59,9.28,151.83,68,140.58,138.19-15.21,94.9-181.25,107.76-202.83,11.73-8.08-35.93,10-63,28.11-83.49,8.89-10,18.14-18.82,24.95-26.69,7-8.09,9.42-13.3,8.94-16.81-.61-8.89-6.77-16.46-6.77-16.46a4.39,4.39,0,0,1,4.4-6.77Z" transform="translate(-14 -14)"/><path class="cls-1" d="M327.42,198l1.51-.33a7.08,7.08,0,0,1,1.77-.2c1.18.07,8,.51,9.64.57.32-.14.81-.35,1.31-.54a10.61,10.61,0,0,1,1.35-.43,2.17,2.17,0,0,1,2.59,1.11,2.5,2.5,0,0,1-1.05,2.66,13,13,0,0,1-2.12,1.36,30.88,30.88,0,0,1-7.79,2.74c-3.24.71-5.16,1-7,.76a14.2,14.2,0,0,1-2.56-.58c-.82-.25-1.76-.57-3-.94a19.17,19.17,0,0,0-3.81-.65c-1.5-.13-3.12-.2-4.82-.29a40.85,40.85,0,0,1-11.24-1.88,256.71,256.71,0,0,1-25.93-11.09,13.15,13.15,0,0,0-1.5-.68,7.5,7.5,0,0,1-.27.7,4.59,4.59,0,0,1-.92,1.37,6.16,6.16,0,0,1-4.13,1.61c-7.07.51-20.56-7.23-21.61-8.22a4.76,4.76,0,0,1-.64-.79c-.16-.24-.34-.55-.54-.88-.35-.61-.77-1.36-1.21-2.11a21.55,21.55,0,0,0-1.28-2,3.65,3.65,0,0,0-.85-.91,8.07,8.07,0,0,1-2.94-3.77,20.54,20.54,0,0,1-.85-2.26c-.23-.43-.88-1.73-1.47-3.08a20.2,20.2,0,0,1-.93-2.51,5.51,5.51,0,0,1-.22-1.26c0-.06,0-.16,0-.28a2.44,2.44,0,0,1-.33-.39,2.19,2.19,0,0,1,.81-3.13,10.85,10.85,0,0,1,3.21-1.12,10.19,10.19,0,0,0,1.18-.33c-.07-.19-.13-.39-.18-.56a4.89,4.89,0,0,1-.17-1.43,5.54,5.54,0,0,1,1.61-3.54c.88-1,1.36-1.58,1.7-1.93a2.83,2.83,0,0,1,2.06-1,24.48,24.48,0,0,0,5.44,0,6.3,6.3,0,0,0,2.95-.8,1.09,1.09,0,0,0,.49-.71c.14-.58.11-1.14.2-1.55a2.48,2.48,0,0,1,2.57-2.09,23.9,23.9,0,0,1,7,1.09,2.94,2.94,0,0,1,1.28.8,4.94,4.94,0,0,1,1-.47c1.64-.56,9.15-5.17,10.87-6.5s12.29-7.55,17.73-6.24c3.3.8,4.34,3.54,4.65,5.79.28,2,0,4.14.22,5.4.28,1.93.63,2.71,3.12,4,3.6,1.82,7.48,8.65,8.68,11.18a5.11,5.11,0,0,1,.22,3.41,14.33,14.33,0,0,1-1.13,2.91c-.42.85-.88,1.67-1.23,2.41a4.46,4.46,0,0,0-.46,1.18,1.64,1.64,0,0,0,.07.22,5.23,5.23,0,0,0,.38.78,20,20,0,0,0,1.54,2.23c1.29,1.67,2.82,3.36,3.75,4.46a15.08,15.08,0,0,1,2.43,4,8.27,8.27,0,0,1,.54,1.9,3.79,3.79,0,0,1,0,1.29,6.77,6.77,0,0,0,2.22.91,2.68,2.68,0,0,1,2.23,2.32,3.89,3.89,0,0,1-.66,2.3c-.11.19-.24.38-.36.56l1.29.21a8.53,8.53,0,0,1,1.75.47,3,3,0,0,1,1.65,1.87,5.77,5.77,0,0,1,.23,1.85c0,.35,0,.71-.06,1.05Z" transform="translate(-14 -14)"/><path class="cls-1" d="M259.49,123l-.1,1.56a4.41,4.41,0,0,1-.57,1.19,38.22,38.22,0,0,1-6.75,4.37c-2.55,1.4-5.35,2.87-7.84,4.47-5.21,3.34-7.66,6.35-6.35,9.79a14.19,14.19,0,0,1,.24,8c-.21,1.12-.45,2.24-.57,3.37a9.84,9.84,0,0,0,.06,3s0,.69,0,.73c-.13.56-1,2.63-3,1.61a2.87,2.87,0,0,1-.9-.76,6,6,0,0,1-.5-.73,10.42,10.42,0,0,1-1.14-2.67,15.6,15.6,0,0,1,.3-5c.13-.7.26-1.41.34-2.11a9.16,9.16,0,0,0,.06-1.85,2.49,2.49,0,0,0-.28-.89,10.69,10.69,0,0,0-.72-1.19c-.34-.5-.67-1-1-1.53a6.46,6.46,0,0,1-.72-2,3.15,3.15,0,0,1,0-1c0-.24.12-.55.22-.92.18-.64.45-1.48.79-2.46.65-1.89,1.56-4.31,2.51-6.75,1.91-4.92,4-10,4.66-11.22,8.12-15.87,20.1-34.73,37.95-44,1.46-.76,6.32-5.22,8-5.71s2.64-6,4.35-6.4c3.46-.81,8.94-30.29,10.84-31.42,3.81-2.27,8.09,52.64,6.4,54.18a2.13,2.13,0,0,1,.51,1.14v.61a2.48,2.48,0,0,1-1.07,1.58c-11.71,4.87-16,7-22.34,15.87a4.27,4.27,0,0,1-1.15.71l-.93.14a8.21,8.21,0,0,1-.88-.09c-2.71-1-4.12-2.9-3.88-5.34.2-2,1.52-4,2.86-5.68a45.26,45.26,0,0,1,4.45-4.57l1.76-1.58.54-.5a18.49,18.49,0,0,0,1.83-3.27l.28-.63-1.3.43c-1.42,1.51-7.71,3-10.24,5.78s-1.86,7.41-3.81,8.32c-.21.1-1,.55-1.69.82a3.74,3.74,0,0,1-1.65.3,2,2,0,0,1-1.32-.63q.32,1,.57,2.1l.38.23a2.4,2.4,0,0,1,.81,1.78,24.83,24.83,0,0,1-1.36,4.66,38.2,38.2,0,0,0-1.39,4.07,4.57,4.57,0,0,0,0,2.11c.17.86.47,1.67.69,2.52a8.8,8.8,0,0,1-1.3,7.68,3.3,3.3,0,0,1-1.38.79l-.68,0a3.66,3.66,0,0,1-1.37-.56,7.6,7.6,0,0,0-3.26-2.4Z" transform="translate(-14 -14)"/><path class="cls-3" d="M256.62,131.5c1.2-2.52,1.64-4.06,2.79-3.43s1.12,3.18-.09,5.71-1.31,2.26-2.47,1.63-1.44-1.38-.23-3.91Z" transform="translate(-14 -14)"/><path class="cls-1" d="M325.37,102c-2.09,0-2.77-1.55-1.08-2.76,2.21-1.58,3.57-3.72,3.31-5.84a2.49,2.49,0,0,1,.77-1.45,7.43,7.43,0,0,0,2.23-1.87c.2-.32.3-.59-.32-1.13a1.53,1.53,0,0,1-.08-2.05l1.47-1.56c-.23-.52-.45-.63-.49-.65a2.25,2.25,0,0,0-1.14,0c-.94.12-1.94.33-2.93.36A6.16,6.16,0,0,1,323.22,84a1.39,1.39,0,0,1,0-2.32c1.42-1.15,1.74-1.73,1.81-1.95a1.56,1.56,0,0,0-.2-.5c-.18-.27-.38-.54-.55-.84a4,4,0,0,1-.5-1.36,5.18,5.18,0,0,1,1.18-3.78,4.48,4.48,0,0,1,1.26-.78c1.8-.35,3.71-.54,5.47-.76a16.61,16.61,0,0,0,3.89-.81c.72-.3.91-.57.95-1,.06-.64,2.23-11.25,4.26-10.82,27.19,5.83,39.11,15.54,54.43,36.68a1.66,1.66,0,0,1-.31,1.94l-2,1.68a2.71,2.71,0,0,1-2.3.28L389.26,99h-.73c.93,2.47,2.12,3.55,4.61,4.82h.75a7.24,7.24,0,0,1,.42-.95,1.94,1.94,0,0,1,3-.62c3,2.16,3.85,5.55,3.93,8.67a41.38,41.38,0,0,1-1,8.77c-.33,1.72-2.12,2.13-3.37.78a67.33,67.33,0,0,0-8.18-7.5,23.31,23.31,0,0,0-5-3,4.88,4.88,0,0,0-2.69-.48l-3.66,2.12c.13.17,3.3,1.35,3.3,1.35,3.7,2,5.29,3.53,8.26,6.09s7.4,3.64,10.17,6.27l.71.17.22-.19.3-.31c1.4-1.46,2.92-.9,3.35.89,4.7,19.74-.45,47.74-21.84,64.29a5.6,5.6,0,0,1-1.34.44l-2.48,0a1.81,1.81,0,0,1-1.81-1.48,10.89,10.89,0,0,0-1.07-4.14c-.63-1.44-1.41-2.83-2-4.43a2.57,2.57,0,0,1,.28-1.43c2.35-2.71,2.24-4.82,1.08-6.81-1.28-2.19-3.85-4.25-6.76-6.52a2.58,2.58,0,0,1-.55-1.35c.86-4.84-1.74-5.78-5.8-5.31a30,30,0,0,0-12.9,5.17,8.81,8.81,0,0,1-.93.41c-4.56.81-9,1.86-13.59,2.49-.07,0-.91-.06-1-.08a51.07,51.07,0,0,1-6.26-2.53c-1.92-.91-3.78-1.9-5.78-2.94a3.15,3.15,0,0,1-.84-1.12,5.84,5.84,0,0,0-.74-2.18c-.44-.69-.78-.76-.94-.75a1.69,1.69,0,0,1-1.85-1.6,29.9,29.9,0,0,0-.23-5.68c-.24-1.86-.58-3.71-.88-5.77-.77-5.32.51-8.16,2.6-10.12a13.57,13.57,0,0,1,1.44-1.15l1.23-.85a3.43,3.43,0,0,0,1.28-1.31,4.81,4.81,0,0,0,.34-1.38c.07-.59.09-1.21.12-1.84a10.08,10.08,0,0,1,1.06-4.54c.81-1.48,20.66-11.88,23-12.4,1.35-.3,2.37.38,2.31,1.54a4.38,4.38,0,0,0,.58,2.77,6.65,6.65,0,0,0,2.51.1,25,25,0,0,0,3.73-.77,5.56,5.56,0,0,1,1.44.09c4.38,1.89,7.14.55,7.62-3.16a2,2,0,0,1,1.94-1.46c15.74,0,10.43-16.22,3.3-8.31a2.33,2.33,0,0,1-2.54.42l-4.55-2.4-1.2.32a2.33,2.33,0,0,0,.18.7,9,9,0,0,0,1.17,1.91c1.29,1.74-.73,3.34-2.73,2.16-.88-.52-2.37-1.49-4.15-2.57a58.74,58.74,0,0,0-5.73-3.11,16.47,16.47,0,0,0-5.15-1.62c-1-.08-1.52.1-1.87.49l.16.26a4.24,4.24,0,0,1,.48,1.05,2,2,0,0,1-.54,1.94,2.75,2.75,0,0,1-2.7.64,5.67,5.67,0,0,1-1.22-.55l-.18-.1c-3.32,1.58-4.57,3-5.31,4.66a18.56,18.56,0,0,0-1,3.38c-.33,1.38-.67,2.92-1.23,4.68a3,3,0,0,1-1.32,1.15l-8.63,2.23a2.32,2.32,0,0,1-2.2-.76,10.37,10.37,0,0,1-.84-7.28,2.37,2.37,0,0,1,1.64-1.32c2.09-.26,3.74-.39,5-.56a5.27,5.27,0,0,0,1.85-.43,1.82,1.82,0,0,0,.17-.7,14.6,14.6,0,0,0-.4-3.14l-1.7-1.18Z" transform="translate(-14 -14)"/><polygon class="cls-1" points="69.72 284.16 60.09 284.16 60.09 240.47 69.72 240.47 69.72 284.16 69.72 284.16"/><text class="cls-4" transform="translate(72.83 325) scale(1.37 1)">SA<tspan class="cls-5" x="67.94" y="0">N</tspan><tspan x="104.09" y="0">K</tspan><tspan class="cls-6" x="138.06" y="0">T</tspan><tspan class="cls-7" x="170.57" y="0"> </tspan><tspan class="cls-8" x="192.13" y="0">PA</tspan><tspan class="cls-5" x="260.06" y="0">U</tspan><tspan class="cls-9" x="296.22" y="0">L</tspan><tspan class="cls-10" x="326.54" y="0">I</tspan></text></svg>